<svg width="343" height="62" viewBox="0 0 343 62" fill="none" xmlns="http://www.w3.org/2000/svg">
<rect y="0.306946" width="342.21" height="61.3715" rx="20" fill="#22223B"/>
<path d="M38.0123 27.7543V30.5543H41.7723V32.3303H38.0123V35.2903H42.2523V37.1143H35.7723V25.9303H42.2523V27.7543H38.0123ZM49.984 37.1143L48.16 34.3623L46.544 37.1143H44.144L47.04 32.6663L44.112 28.2503H46.64L48.448 30.9863L50.08 28.2503H52.48L49.568 32.6663L52.512 37.1143H49.984ZM56.7686 29.5303C57.0566 29.125 57.4513 28.789 57.9526 28.5223C58.4646 28.245 59.0459 28.1063 59.6966 28.1063C60.4539 28.1063 61.1366 28.293 61.7446 28.6663C62.3633 29.0397 62.8486 29.573 63.2006 30.2663C63.5633 30.949 63.7446 31.7437 63.7446 32.6503C63.7446 33.557 63.5633 34.3623 63.2006 35.0663C62.8486 35.7597 62.3633 36.2983 61.7446 36.6823C61.1366 37.0663 60.4539 37.2583 59.6966 37.2583C59.0459 37.2583 58.4699 37.125 57.9686 36.8583C57.4779 36.5917 57.0779 36.2557 56.7686 35.8503V41.3383H54.5286V28.2503H56.7686V29.5303ZM61.4566 32.6503C61.4566 32.117 61.3446 31.6583 61.1206 31.2743C60.9073 30.8797 60.6193 30.581 60.2566 30.3783C59.9046 30.1757 59.5206 30.0743 59.1046 30.0743C58.6993 30.0743 58.3153 30.181 57.9526 30.3943C57.6006 30.597 57.3126 30.8957 57.0886 31.2903C56.8753 31.685 56.7686 32.149 56.7686 32.6823C56.7686 33.2157 56.8753 33.6797 57.0886 34.0743C57.3126 34.469 57.6006 34.773 57.9526 34.9863C58.3153 35.189 58.6993 35.2903 59.1046 35.2903C59.5206 35.2903 59.9046 35.1837 60.2566 34.9703C60.6193 34.757 60.9073 34.453 61.1206 34.0583C61.3446 33.6637 61.4566 33.1943 61.4566 32.6503ZM68.4123 25.2743V37.1143H66.1723V25.2743H68.4123ZM75.3615 37.2583C74.5081 37.2583 73.7401 37.0717 73.0575 36.6983C72.3748 36.3143 71.8361 35.7757 71.4415 35.0823C71.0575 34.389 70.8655 33.589 70.8655 32.6823C70.8655 31.7757 71.0628 30.9757 71.4575 30.2823C71.8628 29.589 72.4121 29.0557 73.1055 28.6823C73.7988 28.2983 74.5721 28.1063 75.4255 28.1063C76.2788 28.1063 77.0521 28.2983 77.7455 28.6823C78.4388 29.0557 78.9828 29.589 79.3775 30.2823C79.7828 30.9757 79.9855 31.7757 79.9855 32.6823C79.9855 33.589 79.7775 34.389 79.3615 35.0823C78.9561 35.7757 78.4015 36.3143 77.6975 36.6983C77.0041 37.0717 76.2255 37.2583 75.3615 37.2583ZM75.3615 35.3063C75.7668 35.3063 76.1455 35.2103 76.4975 35.0183C76.8601 34.8157 77.1481 34.517 77.3615 34.1223C77.5748 33.7277 77.6815 33.2477 77.6815 32.6823C77.6815 31.8397 77.4575 31.1943 77.0095 30.7463C76.5721 30.2877 76.0335 30.0583 75.3935 30.0583C74.7535 30.0583 74.2148 30.2877 73.7775 30.7463C73.3508 31.1943 73.1375 31.8397 73.1375 32.6823C73.1375 33.525 73.3455 34.1757 73.7615 34.6343C74.1881 35.0823 74.7215 35.3063 75.3615 35.3063ZM84.6686 29.6263C84.9566 29.157 85.3299 28.789 85.7886 28.5223C86.2579 28.2557 86.7913 28.1223 87.3886 28.1223V30.4743H86.7966C86.0926 30.4743 85.5593 30.6397 85.1966 30.9703C84.8446 31.301 84.6686 31.877 84.6686 32.6983V37.1143H82.4286V28.2503H84.6686V29.6263ZM97.9373 32.4903C97.9373 32.8103 97.916 33.0983 97.8733 33.3543H91.3933C91.4467 33.9943 91.6707 34.4957 92.0653 34.8583C92.46 35.221 92.9453 35.4023 93.5213 35.4023C94.3533 35.4023 94.9453 35.045 95.2973 34.3303H97.7133C97.4573 35.1837 96.9667 35.8877 96.2413 36.4423C95.516 36.9863 94.6253 37.2583 93.5693 37.2583C92.716 37.2583 91.948 37.0717 91.2653 36.6983C90.5933 36.3143 90.0653 35.7757 89.6813 35.0823C89.308 34.389 89.1213 33.589 89.1213 32.6823C89.1213 31.765 89.308 30.9597 89.6813 30.2663C90.0547 29.573 90.5773 29.0397 91.2493 28.6663C91.9213 28.293 92.6947 28.1063 93.5693 28.1063C94.412 28.1063 95.164 28.2877 95.8253 28.6503C96.4973 29.013 97.0147 29.5303 97.3773 30.2023C97.7507 30.8637 97.9373 31.6263 97.9373 32.4903ZM95.6173 31.8503C95.6067 31.2743 95.3987 30.8157 94.9933 30.4743C94.588 30.1223 94.092 29.9463 93.5053 29.9463C92.9507 29.9463 92.4813 30.117 92.0973 30.4583C91.724 30.789 91.4947 31.253 91.4093 31.8503H95.6173ZM110.745 37.1143L108.281 32.7623H107.225V37.1143H104.985V25.9463H109.177C110.041 25.9463 110.777 26.101 111.385 26.4103C111.993 26.709 112.446 27.1197 112.745 27.6423C113.054 28.1543 113.209 28.7303 113.209 29.3703C113.209 30.1063 112.996 30.773 112.569 31.3703C112.142 31.957 111.508 32.3623 110.665 32.5863L113.337 37.1143H110.745ZM107.225 31.0823H109.097C109.705 31.0823 110.158 30.9383 110.457 30.6503C110.756 30.3517 110.905 29.941 110.905 29.4183C110.905 28.9063 110.756 28.5117 110.457 28.2343C110.158 27.9463 109.705 27.8023 109.097 27.8023H107.225V31.0823ZM124.275 32.4903C124.275 32.8103 124.253 33.0983 124.211 33.3543H117.731C117.784 33.9943 118.008 34.4957 118.403 34.8583C118.797 35.221 119.283 35.4023 119.859 35.4023C120.691 35.4023 121.283 35.045 121.635 34.3303H124.051C123.795 35.1837 123.304 35.8877 122.579 36.4423C121.853 36.9863 120.963 37.2583 119.907 37.2583C119.053 37.2583 118.285 37.0717 117.603 36.6983C116.931 36.3143 116.403 35.7757 116.019 35.0823C115.645 34.389 115.459 33.589 115.459 32.6823C115.459 31.765 115.645 30.9597 116.019 30.2663C116.392 29.573 116.915 29.0397 117.587 28.6663C118.259 28.293 119.032 28.1063 119.907 28.1063C120.749 28.1063 121.501 28.2877 122.163 28.6503C122.835 29.013 123.352 29.5303 123.715 30.2023C124.088 30.8637 124.275 31.6263 124.275 32.4903ZM121.955 31.8503C121.944 31.2743 121.736 30.8157 121.331 30.4743C120.925 30.1223 120.429 29.9463 119.843 29.9463C119.288 29.9463 118.819 30.117 118.435 30.4583C118.061 30.789 117.832 31.253 117.747 31.8503H121.955ZM126.134 32.6823C126.134 31.765 126.321 30.965 126.694 30.2823C127.067 29.589 127.585 29.0557 128.246 28.6823C128.907 28.2983 129.665 28.1063 130.518 28.1063C131.617 28.1063 132.523 28.3837 133.238 28.9383C133.963 29.4823 134.449 30.2503 134.694 31.2423H132.278C132.15 30.8583 131.931 30.5597 131.622 30.3463C131.323 30.1223 130.95 30.0103 130.502 30.0103C129.862 30.0103 129.355 30.245 128.982 30.7143C128.609 31.173 128.422 31.829 128.422 32.6823C128.422 33.525 128.609 34.181 128.982 34.6503C129.355 35.109 129.862 35.3383 130.502 35.3383C131.409 35.3383 132.001 34.933 132.278 34.1223H134.694C134.449 35.0823 133.963 35.845 133.238 36.4103C132.513 36.9757 131.606 37.2583 130.518 37.2583C129.665 37.2583 128.907 37.0717 128.246 36.6983C127.585 36.3143 127.067 35.781 126.694 35.0983C126.321 34.405 126.134 33.5997 126.134 32.6823ZM145.615 28.2503L140.127 41.3063H137.743L139.663 36.8903L136.111 28.2503H138.623L140.911 34.4423L143.231 28.2503H145.615ZM147.046 32.6823C147.046 31.765 147.233 30.965 147.606 30.2823C147.98 29.589 148.497 29.0557 149.158 28.6823C149.82 28.2983 150.577 28.1063 151.43 28.1063C152.529 28.1063 153.436 28.3837 154.15 28.9383C154.876 29.4823 155.361 30.2503 155.606 31.2423H153.19C153.062 30.8583 152.844 30.5597 152.534 30.3463C152.236 30.1223 151.862 30.0103 151.414 30.0103C150.774 30.0103 150.268 30.245 149.894 30.7143C149.521 31.173 149.334 31.829 149.334 32.6823C149.334 33.525 149.521 34.181 149.894 34.6503C150.268 35.109 150.774 35.3383 151.414 35.3383C152.321 35.3383 152.913 34.933 153.19 34.1223H155.606C155.361 35.0823 154.876 35.845 154.15 36.4103C153.425 36.9757 152.518 37.2583 151.43 37.2583C150.577 37.2583 149.82 37.0717 149.158 36.6983C148.497 36.3143 147.98 35.781 147.606 35.0983C147.233 34.405 147.046 33.5997 147.046 32.6823ZM160.287 25.2743V37.1143H158.047V25.2743H160.287ZM171.54 32.4903C171.54 32.8103 171.519 33.0983 171.476 33.3543H164.996C165.05 33.9943 165.274 34.4957 165.668 34.8583C166.063 35.221 166.548 35.4023 167.124 35.4023C167.956 35.4023 168.548 35.045 168.9 34.3303H171.316C171.06 35.1837 170.57 35.8877 169.844 36.4423C169.119 36.9863 168.228 37.2583 167.172 37.2583C166.319 37.2583 165.551 37.0717 164.868 36.6983C164.196 36.3143 163.668 35.7757 163.284 35.0823C162.911 34.389 162.724 33.589 162.724 32.6823C162.724 31.765 162.911 30.9597 163.284 30.2663C163.658 29.573 164.18 29.0397 164.852 28.6663C165.524 28.293 166.298 28.1063 167.172 28.1063C168.015 28.1063 168.767 28.2877 169.428 28.6503C170.1 29.013 170.618 29.5303 170.98 30.2023C171.354 30.8637 171.54 31.6263 171.54 32.4903ZM169.22 31.8503C169.21 31.2743 169.002 30.8157 168.596 30.4743C168.191 30.1223 167.695 29.9463 167.108 29.9463C166.554 29.9463 166.084 30.117 165.7 30.4583C165.327 30.789 165.098 31.253 165.012 31.8503H169.22ZM173.399 32.6503C173.399 31.7543 173.575 30.9597 173.927 30.2663C174.29 29.573 174.781 29.0397 175.399 28.6663C176.018 28.293 176.706 28.1063 177.463 28.1063C178.039 28.1063 178.589 28.2343 179.111 28.4903C179.634 28.7357 180.05 29.0663 180.359 29.4823V25.2743H182.631V37.1143H180.359V35.8023C180.082 36.2397 179.693 36.5917 179.191 36.8583C178.69 37.125 178.109 37.2583 177.447 37.2583C176.701 37.2583 176.018 37.0663 175.399 36.6823C174.781 36.2983 174.29 35.7597 173.927 35.0663C173.575 34.3623 173.399 33.557 173.399 32.6503ZM180.375 32.6823C180.375 32.1383 180.269 31.6743 180.055 31.2903C179.842 30.8957 179.554 30.597 179.191 30.3943C178.829 30.181 178.439 30.0743 178.023 30.0743C177.607 30.0743 177.223 30.1757 176.871 30.3783C176.519 30.581 176.231 30.8797 176.007 31.2743C175.794 31.6583 175.687 32.117 175.687 32.6503C175.687 33.1837 175.794 33.653 176.007 34.0583C176.231 34.453 176.519 34.757 176.871 34.9703C177.234 35.1837 177.618 35.2903 178.023 35.2903C178.439 35.2903 178.829 35.189 179.191 34.9863C179.554 34.773 179.842 34.4743 180.055 34.0903C180.269 33.6957 180.375 33.2263 180.375 32.6823ZM198.376 29.4023C198.376 29.9997 198.232 30.5597 197.944 31.0823C197.666 31.605 197.224 32.0263 196.616 32.3463C196.018 32.6663 195.261 32.8263 194.344 32.8263H192.472V37.1143H190.232V25.9463H194.344C195.208 25.9463 195.944 26.0957 196.552 26.3943C197.16 26.693 197.613 27.1037 197.912 27.6263C198.221 28.149 198.376 28.741 198.376 29.4023ZM194.248 31.0183C194.866 31.0183 195.325 30.8797 195.624 30.6023C195.922 30.3143 196.072 29.9143 196.072 29.4023C196.072 28.3143 195.464 27.7703 194.248 27.7703H192.472V31.0183H194.248ZM203.006 29.6263C203.294 29.157 203.667 28.789 204.126 28.5223C204.595 28.2557 205.129 28.1223 205.726 28.1223V30.4743H205.134C204.43 30.4743 203.897 30.6397 203.534 30.9703C203.182 31.301 203.006 31.877 203.006 32.6983V37.1143H200.766V28.2503H203.006V29.6263ZM211.971 37.2583C211.117 37.2583 210.349 37.0717 209.667 36.6983C208.984 36.3143 208.445 35.7757 208.051 35.0823C207.667 34.389 207.475 33.589 207.475 32.6823C207.475 31.7757 207.672 30.9757 208.067 30.2823C208.472 29.589 209.021 29.0557 209.715 28.6823C210.408 28.2983 211.181 28.1063 212.035 28.1063C212.888 28.1063 213.661 28.2983 214.355 28.6823C215.048 29.0557 215.592 29.589 215.987 30.2823C216.392 30.9757 216.595 31.7757 216.595 32.6823C216.595 33.589 216.387 34.389 215.971 35.0823C215.565 35.7757 215.011 36.3143 214.307 36.6983C213.613 37.0717 212.835 37.2583 211.971 37.2583ZM211.971 35.3063C212.376 35.3063 212.755 35.2103 213.107 35.0183C213.469 34.8157 213.757 34.517 213.971 34.1223C214.184 33.7277 214.291 33.2477 214.291 32.6823C214.291 31.8397 214.067 31.1943 213.619 30.7463C213.181 30.2877 212.643 30.0583 212.003 30.0583C211.363 30.0583 210.824 30.2877 210.387 30.7463C209.96 31.1943 209.747 31.8397 209.747 32.6823C209.747 33.525 209.955 34.1757 210.371 34.6343C210.797 35.0823 211.331 35.3063 211.971 35.3063ZM218.462 32.6503C218.462 31.7543 218.638 30.9597 218.99 30.2663C219.353 29.573 219.843 29.0397 220.462 28.6663C221.081 28.293 221.769 28.1063 222.526 28.1063C223.102 28.1063 223.651 28.2343 224.174 28.4903C224.697 28.7357 225.113 29.0663 225.422 29.4823V25.2743H227.694V37.1143H225.422V35.8023C225.145 36.2397 224.755 36.5917 224.254 36.8583C223.753 37.125 223.171 37.2583 222.51 37.2583C221.763 37.2583 221.081 37.0663 220.462 36.6823C219.843 36.2983 219.353 35.7597 218.99 35.0663C218.638 34.3623 218.462 33.557 218.462 32.6503ZM225.438 32.6823C225.438 32.1383 225.331 31.6743 225.118 31.2903C224.905 30.8957 224.617 30.597 224.254 30.3943C223.891 30.181 223.502 30.0743 223.086 30.0743C222.67 30.0743 222.286 30.1757 221.934 30.3783C221.582 30.581 221.294 30.8797 221.07 31.2743C220.857 31.6583 220.75 32.117 220.75 32.6503C220.75 33.1837 220.857 33.653 221.07 34.0583C221.294 34.453 221.582 34.757 221.934 34.9703C222.297 35.1837 222.681 35.2903 223.086 35.2903C223.502 35.2903 223.891 35.189 224.254 34.9863C224.617 34.773 224.905 34.4743 225.118 34.0903C225.331 33.6957 225.438 33.2263 225.438 32.6823ZM239.05 28.2503V37.1143H236.794V35.9943C236.506 36.3783 236.127 36.6823 235.658 36.9063C235.199 37.1197 234.698 37.2263 234.154 37.2263C233.46 37.2263 232.847 37.0823 232.314 36.7943C231.78 36.4957 231.359 36.0637 231.05 35.4983C230.751 34.9223 230.602 34.2397 230.602 33.4503V28.2503H232.842V33.1303C232.842 33.8343 233.018 34.3783 233.37 34.7623C233.722 35.1357 234.202 35.3223 234.81 35.3223C235.428 35.3223 235.914 35.1357 236.266 34.7623C236.618 34.3783 236.794 33.8343 236.794 33.1303V28.2503H239.05ZM241.484 32.6823C241.484 31.765 241.671 30.965 242.044 30.2823C242.417 29.589 242.935 29.0557 243.596 28.6823C244.257 28.2983 245.015 28.1063 245.868 28.1063C246.967 28.1063 247.873 28.3837 248.588 28.9383C249.313 29.4823 249.799 30.2503 250.044 31.2423H247.628C247.5 30.8583 247.281 30.5597 246.972 30.3463C246.673 30.1223 246.3 30.0103 245.852 30.0103C245.212 30.0103 244.705 30.245 244.332 30.7143C243.959 31.173 243.772 31.829 243.772 32.6823C243.772 33.525 243.959 34.181 244.332 34.6503C244.705 35.109 245.212 35.3383 245.852 35.3383C246.759 35.3383 247.351 34.933 247.628 34.1223H250.044C249.799 35.0823 249.313 35.845 248.588 36.4103C247.863 36.9757 246.956 37.2583 245.868 37.2583C245.015 37.2583 244.257 37.0717 243.596 36.6983C242.935 36.3143 242.417 35.781 242.044 35.0983C241.671 34.405 241.484 33.5997 241.484 32.6823ZM255.093 30.0903V34.3783C255.093 34.677 255.162 34.8957 255.301 35.0343C255.45 35.1623 255.695 35.2263 256.037 35.2263H257.077V37.1143H255.669C253.781 37.1143 252.837 36.197 252.837 34.3623V30.0903H251.781V28.2503H252.837V26.0583H255.093V28.2503H257.077V30.0903H255.093ZM262.88 37.2583C262.155 37.2583 261.504 37.1303 260.928 36.8743C260.352 36.6077 259.893 36.2503 259.552 35.8023C259.221 35.3543 259.04 34.8583 259.008 34.3143H261.264C261.307 34.6557 261.472 34.9383 261.76 35.1623C262.059 35.3863 262.427 35.4983 262.864 35.4983C263.291 35.4983 263.621 35.413 263.856 35.2423C264.101 35.0717 264.224 34.853 264.224 34.5863C264.224 34.2983 264.075 34.085 263.776 33.9463C263.488 33.797 263.024 33.637 262.384 33.4663C261.723 33.3063 261.179 33.141 260.752 32.9703C260.336 32.7997 259.973 32.5383 259.664 32.1863C259.365 31.8343 259.216 31.3597 259.216 30.7623C259.216 30.2717 259.355 29.8237 259.632 29.4183C259.92 29.013 260.325 28.693 260.848 28.4583C261.381 28.2237 262.005 28.1063 262.72 28.1063C263.776 28.1063 264.619 28.373 265.248 28.9063C265.877 29.429 266.224 30.1383 266.288 31.0343H264.144C264.112 30.6823 263.963 30.405 263.696 30.2023C263.44 29.989 263.093 29.8823 262.656 29.8823C262.251 29.8823 261.936 29.957 261.712 30.1063C261.499 30.2557 261.392 30.4637 261.392 30.7303C261.392 31.029 261.541 31.2583 261.84 31.4183C262.139 31.5677 262.603 31.7223 263.232 31.8823C263.872 32.0423 264.4 32.2077 264.816 32.3783C265.232 32.549 265.589 32.8157 265.888 33.1783C266.197 33.5303 266.357 33.9997 266.368 34.5863C266.368 35.0983 266.224 35.557 265.936 35.9623C265.659 36.3677 265.253 36.6877 264.72 36.9223C264.197 37.1463 263.584 37.2583 262.88 37.2583Z" fill="white"/>
<path d="M318.077 32.5564C318.663 31.9706 318.663 31.0209 318.077 30.4351L308.531 20.8891C307.946 20.3034 306.996 20.3034 306.41 20.8891C305.824 21.4749 305.824 22.4247 306.41 23.0105L314.895 31.4957L306.41 39.981C305.824 40.5668 305.824 41.5166 306.41 42.1023C306.996 42.6881 307.946 42.6881 308.531 42.1023L318.077 32.5564ZM291.823 32.9957H317.017V29.9957H291.823V32.9957Z" fill="white"/>
</svg>
