<svg width="343" height="62" viewBox="0 0 343 62" fill="none" xmlns="http://www.w3.org/2000/svg">
<rect y="0.306946" width="342.21" height="61.3715" rx="20" fill="#047857"/>
<path d="M42.4603 31.3543C43.111 31.493 43.6337 31.8183 44.0283 32.3303C44.423 32.8317 44.6203 33.4077 44.6203 34.0583C44.6203 34.997 44.2897 35.7437 43.6283 36.2983C42.9777 36.8423 42.0657 37.1143 40.8923 37.1143H35.6603V25.8823H40.7163C41.8577 25.8823 42.7483 26.1437 43.3883 26.6663C44.039 27.189 44.3643 27.8983 44.3643 28.7943C44.3643 29.4557 44.1883 30.005 43.8363 30.4423C43.495 30.8797 43.0363 31.1837 42.4603 31.3543ZM38.3963 30.4263H40.1883C40.6363 30.4263 40.9777 30.3303 41.2123 30.1383C41.4577 29.9357 41.5803 29.6423 41.5803 29.2583C41.5803 28.8743 41.4577 28.581 41.2123 28.3783C40.9777 28.1757 40.6363 28.0743 40.1883 28.0743H38.3963V30.4263ZM40.4123 34.9063C40.871 34.9063 41.223 34.805 41.4683 34.6023C41.7243 34.389 41.8523 34.085 41.8523 33.6903C41.8523 33.2957 41.719 32.9863 41.4523 32.7623C41.1963 32.5383 40.839 32.4263 40.3803 32.4263H38.3963V34.9063H40.4123ZM51.0712 37.2423C50.1965 37.2423 49.4072 37.0557 48.7032 36.6823C48.0099 36.309 47.4605 35.7757 47.0552 35.0823C46.6605 34.389 46.4632 33.5783 46.4632 32.6503C46.4632 31.733 46.6659 30.9277 47.0712 30.2343C47.4765 29.5303 48.0312 28.9917 48.7352 28.6183C49.4392 28.245 50.2285 28.0583 51.1032 28.0583C51.9779 28.0583 52.7672 28.245 53.4712 28.6183C54.1752 28.9917 54.7299 29.5303 55.1352 30.2343C55.5405 30.9277 55.7432 31.733 55.7432 32.6503C55.7432 33.5677 55.5352 34.3783 55.1192 35.0823C54.7139 35.7757 54.1539 36.309 53.4392 36.6823C52.7352 37.0557 51.9459 37.2423 51.0712 37.2423ZM51.0712 34.8743C51.5939 34.8743 52.0365 34.6823 52.3992 34.2983C52.7725 33.9143 52.9592 33.365 52.9592 32.6503C52.9592 31.9357 52.7779 31.3863 52.4152 31.0023C52.0632 30.6183 51.6259 30.4263 51.1032 30.4263C50.5699 30.4263 50.1272 30.6183 49.7752 31.0023C49.4232 31.3757 49.2472 31.925 49.2472 32.6503C49.2472 33.365 49.4179 33.9143 49.7592 34.2983C50.1112 34.6823 50.5485 34.8743 51.0712 34.8743ZM62.0587 37.2423C61.184 37.2423 60.3947 37.0557 59.6907 36.6823C58.9974 36.309 58.448 35.7757 58.0427 35.0823C57.648 34.389 57.4507 33.5783 57.4507 32.6503C57.4507 31.733 57.6534 30.9277 58.0587 30.2343C58.464 29.5303 59.0187 28.9917 59.7227 28.6183C60.4267 28.245 61.216 28.0583 62.0907 28.0583C62.9654 28.0583 63.7547 28.245 64.4587 28.6183C65.1627 28.9917 65.7174 29.5303 66.1227 30.2343C66.528 30.9277 66.7307 31.733 66.7307 32.6503C66.7307 33.5677 66.5227 34.3783 66.1067 35.0823C65.7014 35.7757 65.1414 36.309 64.4267 36.6823C63.7227 37.0557 62.9334 37.2423 62.0587 37.2423ZM62.0587 34.8743C62.5814 34.8743 63.024 34.6823 63.3867 34.2983C63.76 33.9143 63.9467 33.365 63.9467 32.6503C63.9467 31.9357 63.7654 31.3863 63.4027 31.0023C63.0507 30.6183 62.6134 30.4263 62.0907 30.4263C61.5574 30.4263 61.1147 30.6183 60.7627 31.0023C60.4107 31.3757 60.2347 31.925 60.2347 32.6503C60.2347 33.365 60.4054 33.9143 60.7467 34.2983C61.0987 34.6823 61.536 34.8743 62.0587 34.8743ZM74.4382 37.1143L71.7182 33.3703V37.1143H68.9822V25.2743H71.7182V31.8183L74.4222 28.1863H77.7982L74.0862 32.6663L77.8302 37.1143H74.4382ZM83.3195 32.6343C83.3195 31.717 83.4901 30.9117 83.8315 30.2183C84.1835 29.525 84.6581 28.9917 85.2555 28.6183C85.8528 28.245 86.5195 28.0583 87.2555 28.0583C87.8848 28.0583 88.4341 28.1863 88.9035 28.4423C89.3835 28.6983 89.7515 29.0343 90.0075 29.4503V28.1863H92.7435V37.1143H90.0075V35.8503C89.7408 36.2663 89.3675 36.6023 88.8875 36.8583C88.4181 37.1143 87.8688 37.2423 87.2395 37.2423C86.5141 37.2423 85.8528 37.0557 85.2555 36.6823C84.6581 36.2983 84.1835 35.7597 83.8315 35.0663C83.4901 34.3623 83.3195 33.5517 83.3195 32.6343ZM90.0075 32.6503C90.0075 31.9677 89.8155 31.429 89.4315 31.0343C89.0581 30.6397 88.5995 30.4423 88.0555 30.4423C87.5115 30.4423 87.0475 30.6397 86.6635 31.0343C86.2901 31.4183 86.1035 31.9517 86.1035 32.6343C86.1035 33.317 86.2901 33.861 86.6635 34.2663C87.0475 34.661 87.5115 34.8583 88.0555 34.8583C88.5995 34.8583 89.0581 34.661 89.4315 34.2663C89.8155 33.8717 90.0075 33.333 90.0075 32.6503ZM103.345 37.2423C102.567 37.2423 101.873 37.109 101.265 36.8423C100.657 36.5757 100.177 36.213 99.8255 35.7543C99.4735 35.285 99.2761 34.7623 99.2335 34.1863H101.937C101.969 34.4957 102.113 34.7463 102.369 34.9383C102.625 35.1303 102.94 35.2263 103.313 35.2263C103.655 35.2263 103.916 35.1623 104.097 35.0343C104.289 34.8957 104.385 34.7197 104.385 34.5063C104.385 34.2503 104.252 34.0637 103.985 33.9463C103.719 33.8183 103.287 33.6797 102.689 33.5303C102.049 33.381 101.516 33.2263 101.089 33.0663C100.663 32.8957 100.295 32.6343 99.9855 32.2823C99.6761 31.9197 99.5215 31.4343 99.5215 30.8263C99.5215 30.3143 99.6601 29.8503 99.9375 29.4343C100.225 29.0077 100.641 28.6717 101.185 28.4263C101.74 28.181 102.396 28.0583 103.153 28.0583C104.273 28.0583 105.153 28.3357 105.793 28.8903C106.444 29.445 106.817 30.181 106.913 31.0983H104.385C104.343 30.789 104.204 30.5437 103.969 30.3623C103.745 30.181 103.447 30.0903 103.073 30.0903C102.753 30.0903 102.508 30.1543 102.337 30.2823C102.167 30.3997 102.081 30.565 102.081 30.7783C102.081 31.0343 102.215 31.2263 102.481 31.3543C102.759 31.4823 103.185 31.6103 103.761 31.7383C104.423 31.909 104.961 32.0797 105.377 32.2503C105.793 32.4103 106.156 32.677 106.465 33.0503C106.785 33.413 106.951 33.9037 106.961 34.5223C106.961 35.045 106.812 35.5143 106.513 35.9303C106.225 36.3357 105.804 36.6557 105.249 36.8903C104.705 37.125 104.071 37.2423 103.345 37.2423ZM112.171 25.2743V37.1143H109.435V25.2743H112.171ZM119.018 37.2423C118.143 37.2423 117.354 37.0557 116.65 36.6823C115.957 36.309 115.407 35.7757 115.002 35.0823C114.607 34.389 114.41 33.5783 114.41 32.6503C114.41 31.733 114.613 30.9277 115.018 30.2343C115.423 29.5303 115.978 28.9917 116.682 28.6183C117.386 28.245 118.175 28.0583 119.05 28.0583C119.925 28.0583 120.714 28.245 121.418 28.6183C122.122 28.9917 122.677 29.5303 123.082 30.2343C123.487 30.9277 123.69 31.733 123.69 32.6503C123.69 33.5677 123.482 34.3783 123.066 35.0823C122.661 35.7757 122.101 36.309 121.386 36.6823C120.682 37.0557 119.893 37.2423 119.018 37.2423ZM119.018 34.8743C119.541 34.8743 119.983 34.6823 120.346 34.2983C120.719 33.9143 120.906 33.365 120.906 32.6503C120.906 31.9357 120.725 31.3863 120.362 31.0023C120.01 30.6183 119.573 30.4263 119.05 30.4263C118.517 30.4263 118.074 30.6183 117.722 31.0023C117.37 31.3757 117.194 31.925 117.194 32.6503C117.194 33.365 117.365 33.9143 117.706 34.2983C118.058 34.6823 118.495 34.8743 119.018 34.8743ZM130.918 34.7943V37.1143H129.526C128.534 37.1143 127.76 36.8743 127.206 36.3943C126.651 35.9037 126.374 35.109 126.374 34.0103V30.4583H125.286V28.1863H126.374V26.0103H129.11V28.1863H130.902V30.4583H129.11V34.0423C129.11 34.309 129.174 34.501 129.302 34.6183C129.43 34.7357 129.643 34.7943 129.942 34.7943H130.918ZM142.408 34.7943V37.1143H141.016C140.024 37.1143 139.251 36.8743 138.696 36.3943C138.142 35.9037 137.864 35.109 137.864 34.0103V30.4583H136.776V28.1863H137.864V26.0103H140.6V28.1863H142.392V30.4583H140.6V34.0423C140.6 34.309 140.664 34.501 140.792 34.6183C140.92 34.7357 141.134 34.7943 141.432 34.7943H142.408ZM148.796 37.2423C147.922 37.2423 147.132 37.0557 146.428 36.6823C145.735 36.309 145.186 35.7757 144.78 35.0823C144.386 34.389 144.188 33.5783 144.188 32.6503C144.188 31.733 144.391 30.9277 144.796 30.2343C145.202 29.5303 145.756 28.9917 146.46 28.6183C147.164 28.245 147.954 28.0583 148.828 28.0583C149.703 28.0583 150.492 28.245 151.196 28.6183C151.9 28.9917 152.455 29.5303 152.86 30.2343C153.266 30.9277 153.468 31.733 153.468 32.6503C153.468 33.5677 153.26 34.3783 152.844 35.0823C152.439 35.7757 151.879 36.309 151.164 36.6823C150.46 37.0557 149.671 37.2423 148.796 37.2423ZM148.796 34.8743C149.319 34.8743 149.762 34.6823 150.124 34.2983C150.498 33.9143 150.684 33.365 150.684 32.6503C150.684 31.9357 150.503 31.3863 150.14 31.0023C149.788 30.6183 149.351 30.4263 148.828 30.4263C148.295 30.4263 147.852 30.6183 147.5 31.0023C147.148 31.3757 146.972 31.925 146.972 32.6503C146.972 33.365 147.143 33.9143 147.484 34.2983C147.836 34.6823 148.274 34.8743 148.796 34.8743ZM162.646 29.6743C162.966 29.1837 163.366 28.7997 163.846 28.5223C164.326 28.2343 164.86 28.0903 165.446 28.0903V30.9863H164.694C164.012 30.9863 163.5 31.1357 163.158 31.4343C162.817 31.7223 162.646 32.2343 162.646 32.9703V37.1143H159.91V28.1863H162.646V29.6743ZM175.97 32.5063C175.97 32.7623 175.954 33.029 175.922 33.3063H169.73C169.773 33.861 169.949 34.2877 170.258 34.5863C170.578 34.8743 170.967 35.0183 171.426 35.0183C172.109 35.0183 172.583 34.7303 172.85 34.1543H175.762C175.613 34.741 175.341 35.269 174.946 35.7383C174.562 36.2077 174.077 36.5757 173.49 36.8423C172.903 37.109 172.247 37.2423 171.522 37.2423C170.647 37.2423 169.869 37.0557 169.186 36.6823C168.503 36.309 167.97 35.7757 167.586 35.0823C167.202 34.389 167.01 33.5783 167.01 32.6503C167.01 31.7223 167.197 30.9117 167.57 30.2183C167.954 29.525 168.487 28.9917 169.17 28.6183C169.853 28.245 170.637 28.0583 171.522 28.0583C172.386 28.0583 173.154 28.2397 173.826 28.6023C174.498 28.965 175.021 29.4823 175.394 30.1543C175.778 30.8263 175.97 31.6103 175.97 32.5063ZM173.17 31.7863C173.17 31.317 173.01 30.9437 172.69 30.6663C172.37 30.389 171.97 30.2503 171.49 30.2503C171.031 30.2503 170.642 30.3837 170.322 30.6503C170.013 30.917 169.821 31.2957 169.746 31.7863H173.17ZM177.669 32.6503C177.669 31.7223 177.856 30.9117 178.229 30.2183C178.613 29.525 179.141 28.9917 179.813 28.6183C180.496 28.245 181.275 28.0583 182.149 28.0583C183.269 28.0583 184.203 28.3517 184.949 28.9383C185.707 29.525 186.203 30.3517 186.437 31.4183H183.525C183.28 30.7357 182.805 30.3943 182.101 30.3943C181.6 30.3943 181.2 30.5917 180.901 30.9863C180.603 31.3703 180.453 31.925 180.453 32.6503C180.453 33.3757 180.603 33.9357 180.901 34.3303C181.2 34.7143 181.6 34.9063 182.101 34.9063C182.805 34.9063 183.28 34.565 183.525 33.8823H186.437C186.203 34.9277 185.707 35.749 184.949 36.3463C184.192 36.9437 183.259 37.2423 182.149 37.2423C181.275 37.2423 180.496 37.0557 179.813 36.6823C179.141 36.309 178.613 35.7757 178.229 35.0823C177.856 34.389 177.669 33.5783 177.669 32.6503ZM197.821 28.1863L192.221 41.3543H189.277L191.325 36.8103L187.693 28.1863H190.749L192.813 33.7703L194.861 28.1863H197.821ZM199.066 32.6503C199.066 31.7223 199.253 30.9117 199.626 30.2183C200.01 29.525 200.538 28.9917 201.21 28.6183C201.893 28.245 202.672 28.0583 203.546 28.0583C204.666 28.0583 205.6 28.3517 206.346 28.9383C207.104 29.525 207.6 30.3517 207.834 31.4183H204.922C204.677 30.7357 204.202 30.3943 203.498 30.3943C202.997 30.3943 202.597 30.5917 202.298 30.9863C202 31.3703 201.85 31.925 201.85 32.6503C201.85 33.3757 202 33.9357 202.298 34.3303C202.597 34.7143 202.997 34.9063 203.498 34.9063C204.202 34.9063 204.677 34.565 204.922 33.8823H207.834C207.6 34.9277 207.104 35.749 206.346 36.3463C205.589 36.9437 204.656 37.2423 203.546 37.2423C202.672 37.2423 201.893 37.0557 201.21 36.6823C200.538 36.309 200.01 35.7757 199.626 35.0823C199.253 34.389 199.066 33.5783 199.066 32.6503ZM212.834 25.2743V37.1143H210.098V25.2743H212.834ZM224.033 32.5063C224.033 32.7623 224.017 33.029 223.985 33.3063H217.793C217.835 33.861 218.011 34.2877 218.321 34.5863C218.641 34.8743 219.03 35.0183 219.489 35.0183C220.171 35.0183 220.646 34.7303 220.913 34.1543H223.825C223.675 34.741 223.403 35.269 223.009 35.7383C222.625 36.2077 222.139 36.5757 221.553 36.8423C220.966 37.109 220.31 37.2423 219.585 37.2423C218.71 37.2423 217.931 37.0557 217.249 36.6823C216.566 36.309 216.033 35.7757 215.649 35.0823C215.265 34.389 215.073 33.5783 215.073 32.6503C215.073 31.7223 215.259 30.9117 215.633 30.2183C216.017 29.525 216.55 28.9917 217.233 28.6183C217.915 28.245 218.699 28.0583 219.585 28.0583C220.449 28.0583 221.217 28.2397 221.889 28.6023C222.561 28.965 223.083 29.4823 223.457 30.1543C223.841 30.8263 224.033 31.6103 224.033 32.5063ZM221.233 31.7863C221.233 31.317 221.073 30.9437 220.753 30.6663C220.433 30.389 220.033 30.2503 219.553 30.2503C219.094 30.2503 218.705 30.3837 218.385 30.6503C218.075 30.917 217.883 31.2957 217.809 31.7863H221.233ZM243.283 28.1863L240.867 37.1143H237.843L236.435 31.3223L234.979 37.1143H231.971L229.539 28.1863H232.275L233.539 34.5703L235.043 28.1863H237.939L239.459 34.5383L240.707 28.1863H243.283ZM244.582 32.6343C244.582 31.717 244.753 30.9117 245.094 30.2183C245.446 29.525 245.921 28.9917 246.518 28.6183C247.115 28.245 247.782 28.0583 248.518 28.0583C249.147 28.0583 249.697 28.1863 250.166 28.4423C250.646 28.6983 251.014 29.0343 251.27 29.4503V28.1863H254.006V37.1143H251.27V35.8503C251.003 36.2663 250.63 36.6023 250.15 36.8583C249.681 37.1143 249.131 37.2423 248.502 37.2423C247.777 37.2423 247.115 37.0557 246.518 36.6823C245.921 36.2983 245.446 35.7597 245.094 35.0663C244.753 34.3623 244.582 33.5517 244.582 32.6343ZM251.27 32.6503C251.27 31.9677 251.078 31.429 250.694 31.0343C250.321 30.6397 249.862 30.4423 249.318 30.4423C248.774 30.4423 248.31 30.6397 247.926 31.0343C247.553 31.4183 247.366 31.9517 247.366 32.6343C247.366 33.317 247.553 33.861 247.926 34.2663C248.31 34.661 248.774 34.8583 249.318 34.8583C249.862 34.8583 250.321 34.661 250.694 34.2663C251.078 33.8717 251.27 33.333 251.27 32.6503ZM260.417 37.2423C259.639 37.2423 258.945 37.109 258.337 36.8423C257.729 36.5757 257.249 36.213 256.897 35.7543C256.545 35.285 256.348 34.7623 256.305 34.1863H259.009C259.041 34.4957 259.185 34.7463 259.441 34.9383C259.697 35.1303 260.012 35.2263 260.385 35.2263C260.727 35.2263 260.988 35.1623 261.169 35.0343C261.361 34.8957 261.457 34.7197 261.457 34.5063C261.457 34.2503 261.324 34.0637 261.057 33.9463C260.791 33.8183 260.359 33.6797 259.761 33.5303C259.121 33.381 258.588 33.2263 258.161 33.0663C257.735 32.8957 257.367 32.6343 257.057 32.2823C256.748 31.9197 256.593 31.4343 256.593 30.8263C256.593 30.3143 256.732 29.8503 257.009 29.4343C257.297 29.0077 257.713 28.6717 258.257 28.4263C258.812 28.181 259.468 28.0583 260.225 28.0583C261.345 28.0583 262.225 28.3357 262.865 28.8903C263.516 29.445 263.889 30.181 263.985 31.0983H261.457C261.415 30.789 261.276 30.5437 261.041 30.3623C260.817 30.181 260.519 30.0903 260.145 30.0903C259.825 30.0903 259.58 30.1543 259.409 30.2823C259.239 30.3997 259.153 30.565 259.153 30.7783C259.153 31.0343 259.287 31.2263 259.553 31.3543C259.831 31.4823 260.257 31.6103 260.833 31.7383C261.495 31.909 262.033 32.0797 262.449 32.2503C262.865 32.4103 263.228 32.677 263.537 33.0503C263.857 33.413 264.023 33.9037 264.033 34.5223C264.033 35.045 263.884 35.5143 263.585 35.9303C263.297 36.3357 262.876 36.6557 262.321 36.8903C261.777 37.125 261.143 37.2423 260.417 37.2423ZM271.483 34.7943V37.1143H270.091C269.099 37.1143 268.326 36.8743 267.771 36.3943C267.217 35.9037 266.939 35.109 266.939 34.0103V30.4583H265.851V28.1863H266.939V26.0103H269.675V28.1863H271.467V30.4583H269.675V34.0423C269.675 34.309 269.739 34.501 269.867 34.6183C269.995 34.7357 270.209 34.7943 270.507 34.7943H271.483ZM282.223 32.5063C282.223 32.7623 282.207 33.029 282.175 33.3063H275.983C276.026 33.861 276.202 34.2877 276.511 34.5863C276.831 34.8743 277.221 35.0183 277.679 35.0183C278.362 35.0183 278.837 34.7303 279.103 34.1543H282.015C281.866 34.741 281.594 35.269 281.199 35.7383C280.815 36.2077 280.33 36.5757 279.743 36.8423C279.157 37.109 278.501 37.2423 277.775 37.2423C276.901 37.2423 276.122 37.0557 275.439 36.6823C274.757 36.309 274.223 35.7757 273.839 35.0823C273.455 34.389 273.263 33.5783 273.263 32.6503C273.263 31.7223 273.45 30.9117 273.823 30.2183C274.207 29.525 274.741 28.9917 275.423 28.6183C276.106 28.245 276.89 28.0583 277.775 28.0583C278.639 28.0583 279.407 28.2397 280.079 28.6023C280.751 28.965 281.274 29.4823 281.647 30.1543C282.031 30.8263 282.223 31.6103 282.223 32.5063ZM279.423 31.7863C279.423 31.317 279.263 30.9437 278.943 30.6663C278.623 30.389 278.223 30.2503 277.743 30.2503C277.285 30.2503 276.895 30.3837 276.575 30.6503C276.266 30.917 276.074 31.2957 275.999 31.7863H279.423Z" fill="white"/>
<path d="M318.077 32.5564C318.663 31.9706 318.663 31.0209 318.077 30.4351L308.531 20.8891C307.946 20.3034 306.996 20.3034 306.41 20.8891C305.824 21.4749 305.824 22.4247 306.41 23.0105L314.895 31.4957L306.41 39.981C305.824 40.5668 305.824 41.5166 306.41 42.1023C306.996 42.6881 307.946 42.6881 308.531 42.1023L318.077 32.5564ZM291.823 32.9957H317.017V29.9957H291.823V32.9957Z" fill="white"/>
</svg>
